<?xml version="1.0" encoding="UTF-8"?>
<svg width="256px" height="232px" viewBox="0 0 256 232" version="1.1" xmlns="http://www.w3.org/2000/svg" xmlns:xlink="http://www.w3.org/1999/xlink">
    <!-- Generator: Sketch 60 (88103) - https://sketch.com -->
    <title>Shape</title>
    <desc>Created with Sketch.</desc>
    <g id="Page-1" stroke="none" stroke-width="1" fill="none" fill-rule="evenodd">
        <path d="M128,16 C150.092,16 168,33.908 168,56 L168,88 C168,101.086 136,144 136,144 L135.778,144.222 C178.381,146.556 215.913,167.929 240,199.988 L240,216 L16,216 L16,199.986 C40.087,167.928 77.619,146.555 120.222,144.221 L120,144 C120,144 88,101.086 88,88 L88,56 C88,33.908 105.908,16 128,16 M128,0 C97.122,0 72,25.122 72,56 L72,88 C72,94.381 74.206,104.312 90.566,129.599 C91.12,130.454 91.671,131.3 92.221,132.136 C56.939,140.412 25.418,160.815 3.207,190.375 C1.125,193.146 -0.001,196.52 -0.001,199.986 L-0.001,216 C-0.001,224.836 7.163,232 15.999,232 L239.999,232 C248.835,232 255.999,224.836 255.999,216 L255.999,199.987 C255.999,196.52 254.873,193.148 252.791,190.376 C230.58,160.815 199.059,140.412 163.777,132.135 C164.327,131.299 164.879,130.453 165.432,129.598 C181.794,104.312 184,94.381 184,88 L184,56 C184,25.122 158.878,0 128,0 L128,0 Z" id="Shape" fill="#FFFFFF" fill-rule="nonzero"></path>
    </g>
</svg>