<?xml version="1.0" encoding="UTF-8"?>
<svg width="256px" height="192px" viewBox="0 0 256 192" version="1.1" xmlns="http://www.w3.org/2000/svg" xmlns:xlink="http://www.w3.org/1999/xlink">
    <!-- Generator: Sketch 60 (88103) - https://sketch.com -->
    <title>Shape</title>
    <desc>Created with Sketch.</desc>
    <g id="Page-1" stroke="none" stroke-width="1" fill="none" fill-rule="evenodd">
        <path d="M224,0 L64,0 C51.879,0 40.799,6.848 35.379,17.69 L3.379,81.69 C-1.125,90.699 -1.125,101.302 3.379,110.311 L35.379,174.311 C40.799,185.153 51.879,192.001 64,192.001 L224,192.001 C241.672,192.001 256,177.674 256,160.001 L256,32 C256,14.327 241.672,0 224,0 Z M240,160 C240,168.836 232.836,176 224,176 L64,176 C57.939,176 52.398,172.576 49.689,167.155 L17.689,103.155 C15.437,98.651 15.437,93.349 17.689,88.844 L49.689,24.844 C52.398,19.424 57.939,15.999 64,15.999 L224,15.999 C232.836,15.999 240,23.163 240,31.999 L240,160 Z M56,88 C60.411,88 64,91.589 64,96 C64,100.411 60.411,104 56,104 C51.588,104 48,100.411 48,96 C48,91.589 51.588,88 56,88 M56,80 C47.164,80 40,87.164 40,96 C40,104.836 47.164,112 56,112 C64.836,112 72,104.836 72,96 C72,87.164 64.836,80 56,80 L56,80 Z" id="Shape" fill="#FFFFFF" fill-rule="nonzero"></path>
    </g>
</svg>