<?xml version="1.0" encoding="UTF-8"?>
<svg width="256px" height="256px" viewBox="0 0 256 256" version="1.1" xmlns="http://www.w3.org/2000/svg" xmlns:xlink="http://www.w3.org/1999/xlink">
    <!-- Generator: Sketch 60 (88103) - https://sketch.com -->
    <title>Shape</title>
    <desc>Created with Sketch.</desc>
    <g id="Page-1" stroke="none" stroke-width="1" fill="none" fill-rule="evenodd">
        <path d="M240,64 L194.592,64 C202.762,57.395 208,47.3 208,36 C208,16.149 191.85,0 172,0 C161.688,0 146.766,5.661 134.244,32.631 C131.635,38.25 129.566,43.836 128,48.625 C126.433,43.836 124.365,38.25 121.756,32.631 C109.235,5.661 94.313,0 84,0 C64.149,0 48,16.149 48,36 C48,47.3 53.238,57.395 61.408,64 L16,64 C7.164,64 0,71.164 0,80 L0,112 C0,120.836 7.164,128 16,128 L16,240 C16,248.836 23.164,256 32,256 L224,256 C232.836,256 240,248.836 240,240 L240,128 C248.836,128 256,120.836 256,112 L256,80 C256,71.164 248.836,64 240,64 Z M104,112 L104,80 L152,80 L152,112 L104,112 Z M152,128 L152,240 L104,240 L104,128 L152,128 Z M168,64 L140.777,64 C151.734,55.035 162.703,48 168,48 C172.411,48 176,51.589 176,56 C176,60.411 172.411,64 168,64 Z M88,64 C83.589,64 80,60.411 80,56 C80,51.589 83.589,48 88,48 C93.285,48 104.252,55.035 115.213,64 L88,64 Z M172,8 C187.464,8 200,20.536 200,36 C200,47.598 192.949,57.549 182.898,61.799 C183.601,60 184,58.049 184,56 C184,47.164 176.836,40 168,40 C158.588,40 143.645,51.07 132.93,60.189 C136.229,47.586 148.457,8 172,8 Z M56,36 C56,20.536 68.535,8 84,8 C107.543,8 119.771,47.586 123.07,60.189 C112.355,51.07 97.412,40 88,40 C79.164,40 72,47.164 72,56 C72,58.048 72.398,60 73.101,61.799 C63.051,57.549 56,47.598 56,36 Z M16,80 L96,80 L96,112 L16,112 L16,80 Z M32,128 L96,128 L96,240 L32,240 L32,128 Z M224,240 L160,240 L160,128 L224,128 L224,240 Z M240,112 L160,112 L160,80 L240,80 L240,112 Z" id="Shape" fill="#FFFFFF" fill-rule="nonzero"></path>
    </g>
</svg>