<?xml version="1.0" encoding="UTF-8"?>
<svg width="256px" height="224px" viewBox="0 0 256 224" version="1.1" xmlns="http://www.w3.org/2000/svg" xmlns:xlink="http://www.w3.org/1999/xlink">
    <!-- Generator: Sketch 60 (88103) - https://sketch.com -->
    <title>Shape</title>
    <desc>Created with Sketch.</desc>
    <g id="Page-1" stroke="none" stroke-width="1" fill="none" fill-rule="evenodd">
        <path d="M84,184 C72.972,184 64,192.972 64,204 C64,215.028 72.972,224 84,224 C95.028,224 104,215.028 104,204 C104,192.972 95.028,184 84,184 Z M84,216 C77.372,216 72,210.628 72,204 C72,197.372 77.372,192 84,192 C90.628,192 96,197.372 96,204 C96,210.628 90.628,216 84,216 Z M204,184 C192.972,184 184,192.972 184,204 C184,215.028 192.972,224 204,224 C215.028,224 224,215.028 224,204 C224,192.972 215.028,184 204,184 Z M204,216 C197.372,216 192,210.628 192,204 C192,197.372 197.372,192 204,192 C210.628,192 216,197.372 216,204 C216,210.628 210.628,216 204,216 Z M254.134,18.864 C252.614,17.049 250.368,16 248,16 L49.759,16 L47.845,6.431 C47.097,2.692 43.814,0 40,0 L8,0 C3.582,0 0,3.582 0,8 C0,12.418 3.582,16 8,16 L33.441,16 L64.155,169.569 C64.903,173.308 68.186,176 72,176 L216,176 C220.418,176 224,172.418 224,168 C224,163.582 220.418,160 216,160 L78.559,160 L75.359,144 L228,144 C231.876,144 235.194,141.222 235.875,137.406 L255.875,25.406 C256.292,23.075 255.654,20.68 254.134,18.864 Z M104,128 L72.158,128 L62.558,80 L104,80 L104,128 Z M104,72 L60.958,72 L52.958,32 L104,32 L104,72 Z M176,128 L112,128 L112,80 L176,80 L176,128 Z M176,72 L112,72 L112,32 L176,32 L176,72 Z M221.302,128 L184,128 L184,80 L229.874,80 L221.302,128 Z M231.302,72 L184,72 L184,32 L238.445,32 L231.302,72 Z" id="Shape" fill="#FFFFFF" fill-rule="nonzero"></path>
    </g>
</svg>