<?xml version="1.0" encoding="UTF-8"?>
<svg width="256px" height="224px" viewBox="0 0 256 224" version="1.1" xmlns="http://www.w3.org/2000/svg" xmlns:xlink="http://www.w3.org/1999/xlink">
    <!-- Generator: Sketch 60 (88103) - https://sketch.com -->
    <title>Shape</title>
    <desc>Created with Sketch.</desc>
    <g id="Page-1" stroke="none" stroke-width="1" fill="none" fill-rule="evenodd">
        <path d="M249.61,19.208 C232.883,6.642 212.962,0 191.999,0 C176.863,0 161.779,3.619 148.379,10.465 C141.035,14.217 134.167,18.947 128,24.465 C121.832,18.947 114.964,14.217 107.62,10.465 C94.22,3.619 79.136,0 64,0 C43.038,0 23.117,6.642 6.391,19.206 C2.368,22.228 9.09494702e-13,26.967 9.09494702e-13,31.999 L9.09494702e-13,192.001 C9.09494702e-13,198.063 3.427,203.605 8.85,206.314 C11.113,207.444 13.562,208.001 15.998,208.001 C19.402,208.001 22.784,206.916 25.609,204.794 C36.75,196.425 50.025,192.002 64,192.002 C84.317,192.002 102.981,201.336 115.208,217.61 C118.23,221.632 122.969,224 128,224 C133.032,224 137.771,221.633 140.793,217.61 C153.018,201.336 171.682,192.002 191.999,192.002 C205.975,192.002 219.25,196.426 230.39,204.794 C233.215,206.916 236.598,208.002 240.002,208.002 C242.44,208.002 244.887,207.446 247.149,206.315 C252.573,203.606 256,198.064 256,192.002 L256,32 C256,26.969 253.633,22.229 249.61,19.208 Z M64,176.002 C45.989,176.002 29.371,181.957 16,192.001 L16,31.999 C29.371,21.955 45.989,16 64,16 C87.897,16 109.341,26.484 124,43.097 L124,203.1 C109.341,186.486 87.897,176.002 64,176.002 Z M240,192.002 C226.629,181.957 210.01,176.002 191.999,176.002 C168.102,176.002 146.658,186.486 132,203.099 L132,43.097 C146.658,26.485 168.102,16 191.999,16 C210.01,16 226.629,21.955 240,32 L240,192.002 Z" id="Shape" fill="#FFFFFF" fill-rule="nonzero"></path>
    </g>
</svg>