<?xml version="1.0" encoding="UTF-8"?>
<svg width="192px" height="256px" viewBox="0 0 192 256" version="1.1" xmlns="http://www.w3.org/2000/svg" xmlns:xlink="http://www.w3.org/1999/xlink">
    <!-- Generator: Sketch 60 (88103) - https://sketch.com -->
    <title>Shape</title>
    <desc>Created with Sketch.</desc>
    <g id="Page-1" stroke="none" stroke-width="1" fill="none" fill-rule="evenodd">
        <path d="M192,132 C192,116.99 180.127,104.7 165.278,104.031 L125.338,98.705 C131.551,79.193 140,49.451 140,32.002 C140,15.447 127.119,1.483 110.639,0.127 C109.751,0.043 108.864,0 108,0 L104,0 C96.038,0 89.287,5.855 88.161,13.737 L84.528,39.169 L67.358,73.51 L30.33,101.601 C29.985,101.863 29.651,102.139 29.328,102.427 C10.689,119.113 0,143.014 0,168 C0,216.523 39.477,256 88,256 L132,256 C147.439,256 160,243.439 160,228 C160,225.811 159.747,223.678 159.27,221.631 C169.113,217.287 176,207.433 176,196 C176,192.279 175.271,188.727 173.947,185.477 C180.088,180.336 184,172.616 184,164 C184,160.279 183.271,156.727 181.947,153.477 C188.088,148.336 192,140.615 192,132 Z M164.039,144 L152,144 C149.791,144 148,145.791 148,148 C148,150.209 149.791,152 152,152 L156.002,152 L156,152.002 C162.627,152.002 168,157.373 168,164 C168,170.628 162.627,176 156,176 L144,176 C141.791,176 140,177.791 140,180 C140,182.209 141.791,184 144,184 L148,184 C154.627,184 160,189.373 160,196 C160,202.627 154.627,208 148,208 L128,208 C125.791,208 124,209.791 124,212 C124,214.209 125.791,216 128,216 L132,216 C138.627,216 144,221.373 144,228 C144,234.627 138.627,240 132,240 L88,240 C48.235,240 16,207.765 16,168 C16,146.68 25.274,127.531 40,114.348 L80,84.002 L100,44.002 L104,16 C104,16 107.993,16 108,16 C108.414,16 108.823,16.023 109.228,16.064 C117.489,16.693 124,23.58 124,32.002 C124,56.002 104,112.002 104,112.002 L164,120.002 C170.627,120.002 176,125.375 176,132.002 C176,138.614 170.647,144 164.039,144 Z" id="Shape" fill="#FFFFFF" fill-rule="nonzero"></path>
    </g>
</svg>